<?xml version="1.0" encoding="utf-8"?>
<!DOCTYPE svg
  PUBLIC '-//W3C//DTD SVG 1.0//EN'
  'http://www.w3.org/TR/2001/REC-SVG-20010904/DTD/svg10.dtd'>
<svg width="397.8897637795276" height="192" preserveAspectRatio="xMinYMin meet" viewBox="0 0 397 192" xmlns="http://www.w3.org/2000/svg" version="1.0" fill-rule="evenodd" xmlns:xlink="http://www.w3.org/1999/xlink">
	<title>...</title>
	<desc>...</desc>
	<clipPath id="clip">
		<rect x="0" y="0" width="397.8897637795276" height="192"/>
	</clipPath>
	<g id="group" transform="scale(1,-1) translate(0,-192)" style="clip-path: url(#clip)">
		<g transform="">
			<rect x="0" y="0" width="397.8897637795276" height="192" rx="6" ry="6" style="stroke: none; stroke-linecap: butt; stroke-width: 1; fill: rgb(94%,96%,92%); fill-rule: evenodd;"/>
			<text x="12" y="172" style="font-family: SimHei; font-size: 10px;fill: rgb(26%,52%,20%); stroke:none;" transform="translate(0,344) scale(1,-1)">图 10-1 进程关系与标识</text>
			<rect x="13" y="122" width="371.8897637795276" height="40" rx="4" ry="4" style="stroke: rgb(84%,88%,83%); stroke-linecap: butt; stroke-width: 0.7; fill: rgb(100%,100%,100%); fill-rule: evenodd;"/>
			<text x="21" y="147" style="font-family: SimHei; font-size: 9.5px;fill: rgb(9%,13%,12%); stroke:none;" transform="translate(0,294) scale(1,-1)">Bash</text>
			<text x="21" y="131" style="font-family: SimSun; font-size: 8.5px;fill: rgb(39%,44%,41%); stroke:none;" transform="translate(0,262) scale(1,-1)">父进程</text>
			<path d="M 198.944882,121 L 198.944882,112 Z" style="stroke: rgb(26%,52%,20%); stroke-linecap: butt; stroke-width: 1;"/>
			<polygon points="198.9449 112, 201.342 116.3879, 196.5478 116.3879" style="stroke: none; stroke-linecap: butt; stroke-width: 1; fill: rgb(26%,52%,20%); fill-rule: evenodd;"/>
			<rect x="13" y="71" width="371.8897637795276" height="40" rx="4" ry="4" style="stroke: rgb(84%,88%,83%); stroke-linecap: butt; stroke-width: 0.7; fill: rgb(100%,100%,100%); fill-rule: evenodd;"/>
			<text x="21" y="96" style="font-family: SimHei; font-size: 9.5px;fill: rgb(9%,13%,12%); stroke:none;" transform="translate(0,192) scale(1,-1)">sleep 120</text>
			<text x="21" y="80" style="font-family: SimSun; font-size: 8.5px;fill: rgb(39%,44%,41%); stroke:none;" transform="translate(0,160) scale(1,-1)">子进程，获得自己的 PID</text>
			<path d="M 198.944882,70 L 198.944882,61 Z" style="stroke: rgb(26%,52%,20%); stroke-linecap: butt; stroke-width: 1;"/>
			<polygon points="198.9449 61, 201.342 65.38791, 196.5478 65.38791" style="stroke: none; stroke-linecap: butt; stroke-width: 1; fill: rgb(26%,52%,20%); fill-rule: evenodd;"/>
			<rect x="13" y="20" width="371.8897637795276" height="40" rx="4" ry="4" style="stroke: rgb(84%,88%,83%); stroke-linecap: butt; stroke-width: 0.7; fill: rgb(100%,100%,100%); fill-rule: evenodd;"/>
			<text x="21" y="45" style="font-family: SimHei; font-size: 9.5px;fill: rgb(9%,13%,12%); stroke:none;" transform="translate(0,90) scale(1,-1)">PPID</text>
			<text x="21" y="29" style="font-family: SimSun; font-size: 8.5px;fill: rgb(39%,44%,41%); stroke:none;" transform="translate(0,58) scale(1,-1)">记录父进程的 PID</text>
		</g>
	</g>
</svg>
