<?xml version="1.0" encoding="utf-8"?>
<!DOCTYPE svg
  PUBLIC '-//W3C//DTD SVG 1.0//EN'
  'http://www.w3.org/TR/2001/REC-SVG-20010904/DTD/svg10.dtd'>
<svg width="397.8897637795276" height="192" preserveAspectRatio="xMinYMin meet" viewBox="0 0 397 192" xmlns="http://www.w3.org/2000/svg" version="1.0" fill-rule="evenodd" xmlns:xlink="http://www.w3.org/1999/xlink">
	<title>...</title>
	<desc>...</desc>
	<clipPath id="clip">
		<rect x="0" y="0" width="397.8897637795276" height="192"/>
	</clipPath>
	<g id="group" transform="scale(1,-1) translate(0,-192)" style="clip-path: url(#clip)">
		<g transform="">
			<rect x="0" y="0" width="397.8897637795276" height="192" rx="6" ry="6" style="stroke: none; stroke-linecap: butt; stroke-width: 1; fill: rgb(94%,96%,92%); fill-rule: evenodd;"/>
			<text x="12" y="172" style="font-family: SimHei; font-size: 10px;fill: rgb(26%,52%,20%); stroke:none;" transform="translate(0,344) scale(1,-1)">图 17-1 三个标准描述符</text>
			<rect x="13" y="73" width="104" height="42" rx="4" ry="4" style="stroke: rgb(84%,88%,83%); stroke-linecap: butt; stroke-width: 0.7; fill: rgb(100%,100%,100%); fill-rule: evenodd;"/>
			<text x="21" y="100" style="font-family: SimHei; font-size: 9.5px;fill: rgb(9%,13%,12%); stroke:none;" transform="translate(0,200) scale(1,-1)">0 / stdin</text>
			<text x="21" y="82" style="font-family: SimSun; font-size: 8.5px;fill: rgb(39%,44%,41%); stroke:none;" transform="translate(0,164) scale(1,-1)">输入内容</text>
			<rect x="159" y="73" width="76" height="42" rx="4" ry="4" style="stroke: rgb(84%,88%,83%); stroke-linecap: butt; stroke-width: 0.7; fill: rgb(100%,100%,100%); fill-rule: evenodd;"/>
			<text x="167" y="100" style="font-family: SimHei; font-size: 9.5px;fill: rgb(9%,13%,12%); stroke:none;" transform="translate(0,200) scale(1,-1)">程序</text>
			<rect x="279" y="113" width="105" height="42" rx="4" ry="4" style="stroke: rgb(84%,88%,83%); stroke-linecap: butt; stroke-width: 0.7; fill: rgb(100%,100%,100%); fill-rule: evenodd;"/>
			<text x="287" y="140" style="font-family: SimHei; font-size: 9.5px;fill: rgb(9%,13%,12%); stroke:none;" transform="translate(0,280) scale(1,-1)">1 / stdout</text>
			<text x="287" y="122" style="font-family: SimSun; font-size: 8.5px;fill: rgb(39%,44%,41%); stroke:none;" transform="translate(0,244) scale(1,-1)">正常结果</text>
			<rect x="279" y="31" width="105" height="42" rx="4" ry="4" style="stroke: rgb(84%,88%,83%); stroke-linecap: butt; stroke-width: 0.7; fill: rgb(100%,100%,100%); fill-rule: evenodd;"/>
			<text x="287" y="58" style="font-family: SimHei; font-size: 9.5px;fill: rgb(9%,13%,12%); stroke:none;" transform="translate(0,116) scale(1,-1)">2 / stderr</text>
			<text x="287" y="40" style="font-family: SimSun; font-size: 8.5px;fill: rgb(39%,44%,41%); stroke:none;" transform="translate(0,80) scale(1,-1)">诊断信息</text>
			<path d="M 117,94 L 159,94 Z" style="stroke: rgb(26%,52%,20%); stroke-linecap: butt; stroke-width: 1;"/>
			<polygon points="159 94, 154.6121 96.39713, 154.6121 91.60287" style="stroke: none; stroke-linecap: butt; stroke-width: 1; fill: rgb(26%,52%,20%); fill-rule: evenodd;"/>
			<path d="M 235,101 L 279,132 Z" style="stroke: rgb(26%,52%,20%); stroke-linecap: butt; stroke-width: 1;"/>
			<polygon points="279 132, 274.0323 131.4324, 276.7936 127.5132" style="stroke: none; stroke-linecap: butt; stroke-width: 1; fill: rgb(26%,52%,20%); fill-rule: evenodd;"/>
			<path d="M 235,86 L 279,53 Z" style="stroke: rgb(26%,52%,20%); stroke-linecap: butt; stroke-width: 1;"/>
			<polygon points="279 53, 276.9279 57.55045, 274.0514 53.71505" style="stroke: none; stroke-linecap: butt; stroke-width: 1; fill: rgb(26%,52%,20%); fill-rule: evenodd;"/>
			<text x="16" y="13" style="font-family: SimSun; font-size: 8.5px;fill: rgb(9%,13%,12%); stroke:none;" transform="translate(0,26) scale(1,-1)">每个编号都可以连接终端、文件或其他合适的对象。</text>
		</g>
	</g>
</svg>
